<svg width="260" height="232" viewBox="0 0 260 232" fill="none" xmlns="http://www.w3.org/2000/svg">
<path d="M126.755 231.924C196.76 231.924 253.51 225.863 253.51 218.387C253.51 210.911 196.76 204.851 126.755 204.851C56.7501 204.851 0 210.911 0 218.387C0 225.863 56.7501 231.924 126.755 231.924Z" fill="#E1E7EA"/>
<path d="M259.152 152.597C254.797 149.008 249.387 146.334 243.608 146.925C238.578 147.438 233.937 150.687 232.616 155.719C232.54 155.819 232.554 156.005 232.713 156.063C237.309 157.718 242.194 159.425 247.136 158.434C251.536 157.552 254.593 153.635 259.015 152.948C259.168 152.925 259.304 152.722 259.152 152.597Z" fill="#9FCEBA"/>
<path d="M243.415 172.145C238.434 170.083 234.316 166.061 228.94 164.938C225.137 164.144 220.615 165.306 218.856 169.082C218.832 169.132 218.833 169.18 218.845 169.224C218.805 169.258 218.778 169.309 218.782 169.379C219.053 173.939 224.055 176.142 228.006 176.49C233.453 176.971 238.581 174.707 243.421 172.499C243.554 172.438 243.552 172.201 243.415 172.145Z" fill="#9FCEBA"/>
<path d="M256.525 151.982C253.711 151.178 250.806 150.982 247.913 151.396C247.899 151.395 247.886 151.392 247.871 151.395C247.835 151.401 247.801 151.408 247.765 151.415C247.726 151.42 247.688 151.424 247.649 151.429C247.634 151.432 247.623 151.439 247.61 151.444C246.514 151.64 245.424 151.864 244.338 152.105C245.413 150.941 246.337 149.671 247.1 148.275C247.227 148.044 246.87 147.843 246.743 148.074C245.91 149.6 244.891 150.979 243.677 152.223C243.664 152.236 243.659 152.25 243.65 152.264C241.323 152.803 239.023 153.452 236.755 154.197C237.513 152.807 238.132 151.364 238.608 149.85C238.687 149.599 238.289 149.501 238.21 149.752C237.707 151.354 237.043 152.878 236.216 154.338C236.209 154.351 236.209 154.363 236.204 154.376C225.829 157.864 216.172 163.458 207.988 170.762C204.796 173.61 201.843 176.717 199.149 180.041C198.984 180.245 199.276 180.532 199.442 180.327C202.642 176.378 206.227 172.758 210.111 169.495C210.141 169.552 210.198 169.593 210.285 169.584C214.408 169.154 218.552 169.232 222.632 169.802C222.687 169.869 222.775 169.9 222.865 169.836C223.261 169.893 223.655 169.956 224.049 170.022C224.056 170.037 224.058 170.052 224.069 170.068C225.048 171.442 225.851 172.916 226.467 174.488C226.563 174.731 226.956 174.619 226.86 174.372C226.27 172.866 225.512 171.448 224.595 170.119C226.862 170.525 229.103 171.083 231.305 171.797C231.317 171.816 231.33 171.834 231.351 171.851C232.443 172.694 233.377 173.689 234.146 174.836C234.292 175.055 234.643 174.844 234.496 174.625C233.812 173.602 232.994 172.699 232.058 171.91C234.964 172.471 237.913 172.673 240.874 172.492C241.136 172.476 241.128 172.066 240.864 172.082C238.742 172.211 236.626 172.145 234.528 171.89L238.121 170.121C238.358 170.004 238.145 169.654 237.91 169.77C236.547 170.441 235.184 171.112 233.821 171.783C233.814 171.786 233.811 171.791 233.805 171.795C232.927 171.669 232.051 171.513 231.18 171.32C231.169 171.317 231.161 171.32 231.151 171.319C228.584 170.502 225.962 169.892 223.312 169.488C224.648 168.446 225.925 167.337 227.135 166.149C227.323 165.963 227.029 165.678 226.841 165.863C225.552 167.13 224.191 168.311 222.755 169.408C218.712 168.838 214.606 168.746 210.522 169.152C217.989 162.962 226.557 158.111 235.739 154.943C236.21 154.78 236.687 154.634 237.162 154.48C237.183 154.495 237.209 154.507 237.241 154.513C239.512 154.942 241.623 155.806 243.545 157.091C243.764 157.238 243.963 156.879 243.745 156.734C241.955 155.537 239.999 154.704 237.908 154.237C240.678 153.371 243.492 152.653 246.34 152.095C246.364 152.121 246.394 152.142 246.437 152.153C248.343 152.602 250.142 153.303 251.849 154.264C252.079 154.394 252.279 154.036 252.05 153.907C250.518 153.045 248.913 152.387 247.225 151.93C247.423 151.894 247.62 151.857 247.819 151.821C250.712 151.392 253.611 151.576 256.428 152.381C256.68 152.453 256.778 152.055 256.525 151.982Z" fill="#80AFA6"/>
<path d="M204.358 141.509C201.747 136.612 196.879 133.622 191.992 131.37C191.778 131.271 191.595 131.508 191.744 131.692C195.258 135.992 194.348 141.886 195.439 146.983C196.259 150.812 198.77 154.862 203.018 155.206C203.077 155.256 203.159 155.277 203.246 155.234C203.7 155.01 203.906 154.472 204.125 154.04C206.255 149.848 206.319 145.188 204.358 141.509Z" fill="#9FCEBA"/>
<path d="M246.991 117.447C239.342 117.502 231.406 117.194 224.157 120.052C218.392 122.325 213.333 126.647 211.813 132.865C211.033 136.053 211.281 139.423 212.796 142.347C212.861 142.534 212.957 142.706 213.13 142.82C213.403 143 213.737 142.958 214.042 143.03C214.103 143.044 214.156 143.031 214.197 143.004C219.846 143.679 225.665 142.121 230.198 138.65C234.761 135.155 237.268 129.911 240.324 125.19C242.155 122.363 244.257 119.699 247.094 117.828C247.259 117.72 247.203 117.445 246.991 117.447Z" fill="#9FCEBA"/>
<path d="M232.422 150.541C226.758 149.679 220.749 148.981 215.207 150.864C211.462 152.137 208.067 154.567 206.163 158.046C205.817 158.564 205.523 159.111 205.285 159.695C205.229 159.832 205.33 159.923 205.446 159.936C209.653 162.847 215.333 163.243 219.94 161.033C224.883 158.663 227.178 152.756 232.422 150.937C232.592 150.878 232.639 150.575 232.422 150.541Z" fill="#9FCEBA"/>
<path d="M236.892 128.544C234.397 127.499 231.781 126.898 229.087 126.731C231.266 125.039 233.525 123.451 235.866 121.986C236.089 121.847 235.883 121.492 235.659 121.632C233.572 122.938 231.551 124.342 229.594 125.829C229.593 125.825 229.592 125.821 229.591 125.818C229.601 125.797 229.611 125.776 229.614 125.749C229.872 123.817 229.937 121.886 229.808 119.94C229.791 119.678 229.381 119.676 229.399 119.94C229.528 121.886 229.463 123.817 229.205 125.749C229.203 125.765 229.209 125.776 229.21 125.79C229.209 125.795 229.205 125.799 229.205 125.804C229.189 125.925 229.172 126.045 229.156 126.166C225.537 128.952 222.153 132.036 219.03 135.369C219.083 132.328 218.735 129.317 217.982 126.368C217.917 126.112 217.522 126.221 217.587 126.477C218.359 129.501 218.703 132.588 218.617 135.708C218.616 135.74 218.622 135.768 218.632 135.792C216.126 138.503 213.794 141.376 211.651 144.389C208.444 148.899 205.662 153.714 203.349 158.746C203.489 156.565 203.434 154.383 203.186 152.226C203.191 152.193 203.189 152.159 203.173 152.126C202.996 150.625 202.723 149.136 202.361 147.666C202.406 147.654 202.448 147.629 202.48 147.581C203.295 146.329 203.972 145.008 204.521 143.618C204.617 143.372 204.222 143.266 204.126 143.509C203.618 144.798 202.986 146.019 202.242 147.186C202.069 146.522 201.87 145.864 201.659 145.21C201.012 143.597 200.171 142.001 199.182 140.48C199.204 140.458 199.222 140.431 199.233 140.395C199.608 139.174 199.804 137.932 199.826 136.654C199.83 136.39 199.421 136.39 199.417 136.654C199.396 137.815 199.22 138.944 198.901 140.055C197.614 138.145 196.098 136.361 194.439 134.826C194.246 134.648 193.956 134.937 194.15 135.116C196.336 137.14 198.193 139.459 199.696 142.006C198.268 141.598 196.82 141.387 195.329 141.388C195.065 141.388 195.065 141.798 195.329 141.798C196.91 141.797 198.446 142.032 199.955 142.502C199.964 142.505 199.972 142.502 199.98 142.504C200.312 143.091 200.632 143.686 200.927 144.296C200.927 144.296 200.927 144.297 200.927 144.297C201.783 146.709 202.379 149.189 202.71 151.705C201.223 150.45 199.564 149.468 197.74 148.769C197.494 148.675 197.387 149.071 197.631 149.164C199.538 149.895 201.256 150.945 202.78 152.304C203.046 154.625 203.09 156.973 202.902 159.321C202.894 159.417 202.944 159.476 203.01 159.502C200.807 164.417 199.049 169.532 197.791 174.769C196.329 180.855 195.55 187.095 195.489 193.354C195.487 193.618 195.896 193.618 195.898 193.354C196.008 182.199 198.436 171.126 202.843 160.888C206.561 152.249 211.665 144.207 217.916 137.186C217.944 137.25 218.002 137.3 218.093 137.299C221.346 137.278 224.54 137.823 227.603 138.918C227.852 139.007 227.959 138.611 227.712 138.523C224.641 137.425 221.436 136.879 218.176 136.891C219.159 135.798 220.167 134.728 221.205 133.686C223.549 131.334 226.034 129.129 228.64 127.078C228.67 127.099 228.704 127.116 228.749 127.118C231.527 127.252 234.217 127.865 236.782 128.94C237.027 129.041 237.132 128.644 236.892 128.544Z" fill="#80AFA6"/>
<path d="M228.162 150.823C224.514 151.506 220.742 152.275 217.12 153.409C217.356 152.697 217.592 151.985 217.828 151.273C217.911 151.022 217.516 150.914 217.433 151.164C217.168 151.964 216.903 152.765 216.638 153.565C214.589 154.228 212.592 155.01 210.697 155.968C210.999 155.215 211.205 154.437 211.308 153.623C211.341 153.362 210.932 153.365 210.899 153.623C210.782 154.544 210.523 155.426 210.129 156.266C209.497 156.602 208.873 156.952 208.268 157.33C208.212 157.341 208.164 157.372 208.131 157.416C205.674 158.969 203.451 160.892 201.599 163.327C201.439 163.537 201.794 163.741 201.952 163.534C203.758 161.162 205.925 159.283 208.324 157.764C210.59 158.816 212.737 160.076 214.757 161.549C214.97 161.704 215.175 161.349 214.963 161.195C213.004 159.767 210.923 158.542 208.733 157.509C209.258 157.189 209.796 156.891 210.34 156.603C210.373 156.598 210.402 156.583 210.428 156.557C213.322 155.037 216.474 153.947 219.69 153.088C219.699 153.16 219.742 153.225 219.832 153.249C221.509 153.684 223.033 154.436 224.391 155.513C224.595 155.675 224.887 155.387 224.68 155.224C223.349 154.168 221.869 153.405 220.244 152.941C222.919 152.25 225.632 151.712 228.27 151.218C228.529 151.169 228.419 150.774 228.162 150.823Z" fill="#80AFA6"/>
<path d="M241.693 171.91L212.091 171.402L182.416 172.573L212.453 181.468L241.693 171.91Z" fill="#F9C495"/>
<path d="M241.928 214.272L225.084 216.088L221.772 216.445L207.343 218.003V173.293L221.772 172.71L225.084 172.579L241.695 171.911L241.928 214.272Z" fill="#F4A279"/>
<path d="M225.084 172.579V216.088L221.772 216.445V172.71L225.084 172.579Z" fill="#E0856C"/>
<path d="M207.341 218.003L182.416 215.878V172.573L207.341 173.293V218.003Z" fill="#EA8E6E"/>
<path d="M239.21 193.705L210.495 197.036L210.431 187.102L239.21 184.874V193.705Z" fill="#F7F2ED"/>
<path d="M35.3939 128.556C35.4356 128.523 35.4667 128.475 35.4741 128.41C36.2228 121.884 30.5817 116.825 24.5432 115.953C17.2375 114.898 10.5314 118.624 4.6652 122.523C4.49983 122.633 4.55795 122.904 4.76835 122.905C11.014 122.946 15.5195 127.879 20.9317 130.241C25.6751 132.312 31.1257 131.864 35.4065 128.917C35.5519 128.817 35.5052 128.626 35.3939 128.556Z" fill="#9FCEBA"/>
<path d="M38.0001 134.213C37.9808 134.157 37.9444 134.121 37.9026 134.099C38.0242 134.066 38.1163 133.942 38.0218 133.815C35.9153 130.967 32.0189 130.943 28.996 132.157C24.8564 133.819 21.4749 137.433 16.8072 137.614C16.5932 137.623 16.5432 137.879 16.7041 137.997C20.7565 140.959 26.0148 142.74 31.066 142.237C33.2518 142.019 35.4962 141.231 36.9149 139.471C38.1081 137.99 38.6345 136.042 38.0001 134.213Z" fill="#9FCEBA"/>
<path d="M57.9612 150.38C52.0619 140.581 43.4106 132.57 33.2956 127.301C33.4634 125.567 33.4688 123.839 33.3112 122.103C33.2874 121.843 32.8777 121.84 32.9018 122.103C33.0533 123.769 33.0504 125.428 32.9018 127.092C31.4499 126.348 29.9685 125.661 28.4606 125.033C28.2219 124.934 27.9816 124.84 27.7422 124.743C27.7569 124.707 27.7643 124.667 27.7516 124.618C26.9931 121.753 25.5518 119.166 23.5191 117.012C23.3378 116.82 23.0488 117.11 23.2297 117.302C25.1785 119.367 26.5576 121.832 27.3095 124.568C24.4348 123.442 21.4777 122.54 18.4655 121.862C18.4667 121.829 18.4622 121.795 18.4434 121.759C17.7512 120.428 16.8494 119.246 15.7499 118.227C15.5567 118.048 15.2665 118.337 15.4606 118.517C16.4749 119.457 17.3071 120.54 17.9669 121.752C17.824 121.721 17.682 121.687 17.5391 121.657C17.5195 121.653 17.5023 121.656 17.4843 121.657C14.8228 121.189 12.1449 121.246 9.50516 121.835C9.2481 121.892 9.35698 122.287 9.61404 122.23C11.8277 121.736 14.068 121.626 16.3021 121.895C15.2334 122.38 14.2194 122.961 13.2637 123.648C13.0516 123.801 13.2559 124.157 13.4704 124.002C14.5383 123.234 15.675 122.592 16.8846 122.076C16.9325 122.055 16.9587 122.024 16.9743 121.989C17.1536 122.017 17.3324 122.041 17.5113 122.073C17.5154 122.074 17.5187 122.073 17.5228 122.073C20.2649 122.65 22.9599 123.422 25.5883 124.372C23.6087 125.095 21.8003 126.145 20.1867 127.514C19.9853 127.685 20.2764 127.974 20.4761 127.804C22.1466 126.386 24.032 125.32 26.1065 124.618C26.129 124.61 26.145 124.598 26.1618 124.586C28.6047 125.496 30.9837 126.57 33.2919 127.779C31.0746 128.162 29.0692 129.175 27.4483 130.769C27.26 130.954 27.5494 131.244 27.7377 131.059C29.42 129.405 31.5428 128.374 33.8855 128.093C33.8863 128.093 33.8867 128.093 33.8879 128.093C36.7487 129.63 39.4941 131.384 42.084 133.349C39.8306 133.444 37.6104 133.785 35.4446 134.347C34.2792 133.693 33.2158 132.901 32.2559 131.97C32.0668 131.786 31.777 132.076 31.9665 132.26C32.8531 133.12 33.831 133.86 34.8891 134.49C33.4147 134.901 31.9673 135.416 30.5559 136.038C30.5408 136.036 30.5248 136.036 30.5093 136.036C30.488 135.99 30.4466 135.954 30.3791 135.94C29.0582 135.684 27.8421 135.189 26.7184 134.447C26.4978 134.302 26.2927 134.656 26.5117 134.801C27.5809 135.507 28.7434 135.997 29.9882 136.274C28.2006 137.147 26.321 137.768 24.3914 138.131C24.3799 138.126 24.3713 138.118 24.3578 138.115C23.7221 137.95 23.1413 137.666 22.6284 137.254C22.4249 137.09 22.1335 137.379 22.339 137.544C22.7156 137.846 23.1241 138.086 23.56 138.27C21.9804 138.505 20.3721 138.571 18.7557 138.459C18.4929 138.441 18.4937 138.851 18.7557 138.869C20.1667 138.967 21.5719 138.924 22.9583 138.758C22.5031 139.283 22.1294 139.867 21.8552 140.511C21.7532 140.751 22.1057 140.96 22.2088 140.718C22.5281 139.967 22.9726 139.298 23.5461 138.717C23.5572 138.706 23.5613 138.694 23.5686 138.682C25.0958 138.457 26.5965 138.076 28.0508 137.542C27.3509 138.628 26.8638 139.814 26.5961 141.09C26.542 141.347 26.9366 141.457 26.9906 141.199C27.2911 139.767 27.8683 138.466 28.7225 137.282C29.2285 137.078 29.7291 136.856 30.2219 136.614C30.2404 136.611 30.2588 136.61 30.278 136.601C32.165 135.731 34.1229 135.059 36.1262 134.581C35.6174 136.182 35.2207 137.806 34.9358 139.461C34.8916 139.719 35.2858 139.83 35.3304 139.571C35.6182 137.898 36.0193 136.257 36.5359 134.64C36.5547 134.581 36.5457 134.531 36.5228 134.491C38.5072 134.045 40.5343 133.787 42.5842 133.732C45.6006 136.068 48.4074 138.679 50.9518 141.535C53.4479 144.337 55.671 147.37 57.6067 150.585C57.7435 150.812 58.0979 150.607 57.9612 150.38Z" fill="#80AFA6"/>
<path d="M62.9604 111.427C61.6489 106.567 58.3983 102.37 54.1143 99.7694C53.9591 99.6751 53.7692 99.8305 53.8134 100.001C54.9747 104.462 51.6312 108.588 52.0991 113.087C52.5039 116.981 54.7536 120.293 57.2383 123.184C57.2837 123.237 57.3374 123.254 57.3885 123.249C57.4045 123.359 57.4982 123.465 57.6394 123.437C63.1065 122.341 64.2002 116.022 62.9604 111.427Z" fill="#9FCEBA"/>
<path d="M45.892 97.3754C41.1003 92.6005 34.5064 91.883 28.0827 91.4829C27.9083 91.4718 27.8093 91.7166 27.9378 91.833C30.3652 94.0261 32.2857 96.7362 33.4704 99.7948C34.6496 102.839 35.041 106.141 36.4126 109.117C37.5174 111.516 39.2551 113.518 41.7692 114.458C44.3967 115.44 47.303 115.249 50.0181 114.79C50.1229 114.859 50.2899 114.841 50.3341 114.684C52.0647 108.556 50.4135 101.881 45.892 97.3754Z" fill="#9FCEBA"/>
<path d="M52.4925 125.711C48.025 123.768 43.3549 126.05 38.7794 125.04C38.6402 125.009 38.4695 125.136 38.5277 125.292C41.5473 133.425 50.7737 137.48 58.7921 134.148C58.9112 134.266 59.1761 134.158 59.1347 133.942C58.4364 130.307 55.8789 127.184 52.4925 125.711Z" fill="#9FCEBA"/>
<path d="M57.2653 126.296C57.2764 126.278 57.2866 126.258 57.2915 126.233C57.5555 124.825 57.7565 123.41 57.9031 121.992C57.9108 121.989 57.9178 121.991 57.9256 121.987C59.4503 121.34 60.8519 120.494 62.1429 119.456C62.3484 119.29 62.057 119.002 61.8535 119.166C60.6575 120.128 59.3529 120.907 57.9526 121.525C58.102 119.939 58.1793 118.348 58.1867 116.756C59.7741 115.995 61.1818 114.967 62.3914 113.686C62.5723 113.495 62.2833 113.204 62.102 113.396C60.9698 114.595 59.6611 115.561 58.192 116.296C58.1834 114.195 58.052 112.093 57.7913 109.998C57.7909 109.989 57.7938 109.982 57.7921 109.973C57.7897 109.958 57.7864 109.943 57.7835 109.928C57.779 109.893 57.7757 109.858 57.7721 109.824C58.3676 108.453 58.8449 107.048 59.1978 105.593C59.26 105.337 58.8654 105.228 58.8032 105.484C58.5023 106.725 58.1085 107.932 57.6272 109.111C57.0942 106.371 56.2559 103.716 55.1102 101.166C55.0021 100.926 54.6493 101.134 54.7569 101.373C55.9972 104.134 56.8707 107.021 57.3832 110.004C57.5629 111.449 57.6763 112.898 57.7356 114.347C56.5531 113.17 55.1662 112.269 53.6018 111.66C53.3562 111.564 53.2498 111.96 53.4929 112.055C55.127 112.692 56.5572 113.672 57.7536 114.952C57.8044 116.671 57.7696 118.391 57.6529 120.107C56.6665 119.351 55.6333 118.67 54.542 118.073C54.3107 117.946 54.104 118.301 54.3353 118.427C55.4663 119.046 56.5424 119.749 57.5588 120.543C57.578 120.558 57.5985 120.565 57.619 120.573C57.4864 122.295 57.2706 124.011 56.9649 125.718C54.49 120.938 51.6955 116.324 48.6034 111.915C48.6067 111.907 48.6128 111.901 48.6153 111.891C49.0373 110.301 49.5543 108.746 50.1679 107.219C50.2661 106.974 49.8703 106.868 49.7733 107.11C49.1978 108.542 48.7107 110.001 48.3038 111.489C48.1556 111.279 48.0103 111.068 47.8605 110.859C45.316 107.314 42.5743 103.916 39.6587 100.673C39.6918 100.64 39.7147 100.595 39.7135 100.533C39.6787 98.4291 39.6443 96.325 39.6095 94.2213C39.605 93.9576 39.1957 93.9568 39.2002 94.2213L39.2997 100.274C38.9018 99.835 38.5015 99.3987 38.0975 98.9658C38.0909 98.9514 38.088 98.9375 38.077 98.9231C35.8686 96.0269 32.991 93.8047 29.6329 92.4017C29.3901 92.3 29.2841 92.6969 29.524 92.7969C32.4167 94.0056 34.9538 95.8773 36.9853 98.2491C35.9652 97.7973 34.8969 97.5054 33.7757 97.3738C33.5146 97.343 33.5166 97.7534 33.7757 97.7838C35.0913 97.9379 36.3324 98.3299 37.5023 98.9518C37.5133 98.958 37.524 98.958 37.535 98.9617C40.3795 101.987 43.0606 105.162 45.5707 108.466C43.4425 108.509 41.3721 108.909 39.3779 109.676C39.1347 109.77 39.2403 110.167 39.4867 110.071C41.5399 109.281 43.6754 108.879 45.874 108.869C54.7884 120.708 61.5011 134.192 65.5559 148.469C67.0111 153.591 68.1155 158.808 68.8744 164.079C68.9117 164.339 69.3063 164.229 69.269 163.97C67.3808 150.854 63.2874 138.083 57.2653 126.296Z" fill="#80AFA6"/>
<path d="M61.4409 135.232C60.0381 134.142 58.3767 133.717 56.6734 133.409C56.7176 133.353 56.7295 133.277 56.673 133.2C55.5854 131.701 54.98 130.011 54.8855 128.158C54.8719 127.896 54.4626 127.894 54.4761 128.158C54.5727 130.049 55.1761 131.799 56.2731 133.337C55.19 133.152 54.0971 132.997 53.0492 132.734C52.9219 132.702 52.7962 132.665 52.6697 132.631C52.6214 132.579 52.551 132.554 52.4733 132.578C51.4602 132.296 50.4679 131.951 49.5023 131.544C49.5023 131.516 49.4966 131.486 49.4839 131.456C48.7692 129.787 48.1982 128.072 47.7614 126.31C47.698 126.054 47.303 126.162 47.3668 126.419C47.7823 128.096 48.3283 129.725 48.9906 131.318C47.1278 130.482 45.3664 129.424 43.7508 128.161C43.5457 128 43.2538 128.288 43.4614 128.451C44.3861 129.174 45.3541 129.833 46.3611 130.425C45.513 130.536 44.6759 130.696 43.8482 130.918C43.594 130.986 43.7017 131.382 43.9571 131.313C44.8523 131.073 45.7581 130.899 46.6791 130.794C46.7536 130.785 46.8044 130.744 46.8363 130.692C48.3496 131.539 49.9436 132.238 51.61 132.756C51.7401 132.797 51.8732 132.832 52.0058 132.869C51.5351 133.21 51.1351 133.635 50.8224 134.133C50.6816 134.357 51.0357 134.563 51.1757 134.34C51.5232 133.787 51.9874 133.341 52.5441 133.006C55.4356 133.687 58.7774 133.677 61.1523 135.523C61.357 135.682 61.6489 135.394 61.4409 135.232Z" fill="#80AFA6"/>
<path d="M14.2227 172.496L43.8249 171.988L73.4999 173.159L43.4626 182.054L14.2227 172.496Z" fill="#F9C495"/>
<path d="M48.5752 173.879V218.589L30.4458 216.634L27.0934 216.273L13.9865 214.858L14.2239 172.497L27.0934 173.014L30.4458 173.149L48.5752 173.879Z" fill="#F4A279"/>
<path d="M30.4458 216.634V173.149L27.0934 173.014V216.273L30.4458 216.634Z" fill="#E0856C"/>
<path d="M73.4995 173.157V215.088L64.2445 216.388L60.6178 216.896L48.5752 218.589V173.879L60.6178 173.53L64.2445 173.424L73.4995 173.157Z" fill="#EA8E6E"/>
<path d="M60.6178 173.53V216.896L64.2445 216.388V173.424L60.6178 173.53Z" fill="#C67163"/>
<path d="M16.7057 204.752L45.4204 208.083L45.4843 198.149L16.7057 195.921V204.752Z" fill="#F7F2ED"/>
<path d="M47.4045 140.612V173.407L33.393 172.895L31.0967 172.813L22.4638 172.497L22.2673 141.386L31.0967 141.116L33.393 141.042L47.4045 140.612Z" fill="#F4A279"/>
<path d="M33.393 141.042V172.895L31.0966 172.813V141.116L33.393 141.042Z" fill="#E0856C"/>
<path d="M66.463 141.296V172.497L60.6178 172.776L56.9338 172.952L47.4045 173.407V140.612L56.9338 140.956L60.6178 141.087L66.463 141.296Z" fill="#EA8E6E"/>
<path d="M60.6178 172.776V141.087L56.9338 140.956V172.952L60.6178 172.776Z" fill="#C67163"/>
<path d="M24.0275 165.056L45.0922 165.703L45.1388 156.227L24.0275 156.781V165.056Z" fill="#F7F2ED"/>
<path d="M86.9265 107.029V105.437C86.9265 105.437 89.2343 105.691 90.5384 108.18C92.0349 111.035 92.7599 126.682 93.7599 127.372C94.7599 128.063 103.751 129.741 103.751 129.741L105.077 135.137C105.077 135.137 89.0652 137.743 86.7906 134.852C84.5159 131.962 86.9265 107.029 86.9265 107.029Z" fill="#E5DDD8"/>
<path d="M72.1978 102.65C72.1978 102.65 65.556 103.692 64.4827 106.035C63.409 108.378 67.4447 130.131 67.4447 130.131L88.6096 130.382C88.6096 130.382 88.2199 107.695 87.5495 106.017C87.1225 104.948 83.046 104.321 83.046 104.321L72.1978 102.65Z" fill="#F7F2ED"/>
<path d="M65.5707 122.323C65.5707 122.323 69.5379 117.824 70.3046 114.264L86.926 114.264C86.926 114.264 88.7852 117.775 88.9522 119.929C89.1331 122.259 89.5081 130.382 89.5081 130.382H66.1773L65.5707 122.323Z" fill="#5D808F"/>
<path d="M73.1933 114.264C72.5662 110.301 71.5691 106.651 70.1524 103.075C69.5081 103.133 68.4127 103.428 67.7598 103.795C68.9858 107.662 69.8482 111.047 70.3047 114.264H73.1933Z" fill="#5D808F"/>
<path d="M84.1389 114.264C84.3652 114.303 84.0873 108.714 83.046 104.271C83.7562 104.266 85.1991 104.619 85.8622 104.911C86.7136 107.436 86.7738 110.737 86.9264 114.264L84.1389 114.264Z" fill="#5D808F"/>
<path d="M74.2781 118.422H84.651C84.651 118.422 85.1753 123.769 84.6702 124.708C84.1651 125.648 80.8049 127.298 80.3722 127.37C79.9391 127.442 74.7619 125.493 74.5454 124.77C74.3292 124.048 74.2781 118.422 74.2781 118.422Z" stroke="#446177" stroke-miterlimit="10"/>
<path d="M74.3046 120.177H84.7913" stroke="#446177" stroke-miterlimit="10"/>
<path d="M94.66 205.649C94.66 205.649 91.2731 210.575 82.0848 208.897L87.4193 202.848L94.66 205.649Z" fill="#547D87"/>
<path d="M92.0448 212.246L85.3559 213.066L85.1062 210.42L84.1475 200.328L83.9879 198.629L90.861 197.308L91.2543 197.23L91.7865 207.376L92.0448 212.246Z" fill="#FCBFA9"/>
<path d="M91.7865 207.376C90.2752 207.245 87.4242 207.466 85.1061 210.42L84.1479 200.328L90.861 197.308L91.2543 197.23L91.7865 207.376Z" fill="#EF9C9C"/>
<path d="M101.305 214.51C101.305 214.51 101.305 214.535 101.301 214.576C101.035 217.05 85.9661 220.48 84.8069 219.569C84.3726 219.228 84.3357 218.244 84.459 217.144C84.6718 215.277 85.3558 213.066 85.3558 213.066C87.506 212.172 89.5421 211.672 91.9993 211.388C93.4901 211.224 99.6178 210.366 101.027 213.444C101.031 213.444 101.031 213.444 101.031 213.444C101.175 213.756 101.269 214.112 101.305 214.51Z" fill="#422748"/>
<path d="M101.305 214.51C101.305 214.51 101.305 214.535 101.301 214.576C101.035 217.05 85.9661 220.48 84.8069 219.569C84.3726 219.228 84.3357 218.244 84.459 217.144C85.7328 216.27 88.1741 216.069 88.8703 215.975C90.0009 215.819 95.4893 212.701 98.4876 212.66C99.7164 212.644 100.515 213.004 101.027 213.444C101.031 213.444 101.031 213.444 101.031 213.444C101.174 213.756 101.269 214.112 101.305 214.51Z" fill="#634466"/>
<path d="M101.305 214.51C101.305 214.51 101.305 214.535 101.301 214.576C101.035 217.05 85.9661 220.48 84.8069 219.569C84.1475 217.079 87.1016 217.519 89.4225 216.657C90.6027 216.219 95.8933 214.068 97.3796 213.595C99.96 212.774 101.305 214.51 101.305 214.51Z" fill="#908791"/>
<path d="M56.3718 215.993C56.2109 216.394 55.9808 216.694 55.6685 216.869C52.7897 218.484 44.944 203.749 45.7516 202.364C45.8994 202.111 46.1163 201.906 46.3726 201.736C47.5318 200.961 49.9117 200.931 49.9117 200.931L54.3877 202.965C54.3877 202.965 57.6919 212.726 56.3718 215.993Z" fill="#422748"/>
<path d="M56.3718 215.993C56.2109 216.394 55.9808 216.694 55.6685 216.869C52.7897 218.484 44.944 203.749 45.7516 202.364C45.8994 202.111 46.1163 201.906 46.3726 201.736C46.885 203.731 48.5351 207.312 50.5993 210.47C53.1294 214.34 54.4528 216.067 56.3718 215.993Z" fill="#634466"/>
<path d="M54.8236 205.552C52.3234 204.743 50.7192 203.175 49.9116 200.931L51.781 199.045L58.9067 191.845L60.1069 190.635L65.5207 195.077L65.8322 195.329L58.3926 202.235L54.8236 205.552Z" fill="#FCBFA9"/>
<path d="M58.3926 202.235C56.8347 202.543 54.032 201.302 51.7806 199.045L58.9063 191.845L65.5203 195.077L65.8318 195.329L58.3926 202.235Z" fill="#EF9C9C"/>
<path d="M66.1777 130.382C66.1777 130.382 65.2809 169.689 63.208 178.181C62.0541 182.91 53.9485 193.864 53.9485 193.864C55.7897 197.88 58.9211 200.587 63.5711 201.754C63.5711 201.754 73.0472 189.911 74.8896 181.202C76.127 175.352 79.1606 156.633 79.1606 156.633L82.2523 205.212L93.7598 203.678L89.5085 130.382H66.1777Z" fill="#5D808F"/>
<path d="M67.2506 139.224C67.2506 139.224 66.6624 173.333 64.3313 179.769C62.2682 185.464 55.3746 194.233 55.3746 194.233" stroke="#446177" stroke-miterlimit="10" stroke-linecap="round" stroke-linejoin="round"/>
<path d="M69.4512 139.518C69.4512 139.518 70.3026 145.974 67.1974 145.597" stroke="#446177" stroke-miterlimit="10" stroke-linecap="round" stroke-linejoin="round"/>
<path d="M80.5912 150.282L80.3333 139.676" stroke="#446177" stroke-miterlimit="10" stroke-linecap="round" stroke-linejoin="round"/>
<path d="M82.7504 139.676C82.7504 139.676 83.8421 145.519 80.4844 145.884" stroke="#446177" stroke-miterlimit="10" stroke-linecap="round" stroke-linejoin="round"/>
<path d="M81.6072 202.522C86.1045 200.091 90.2691 199.189 94.1262 199.662L94.66 205.649C91.4959 204.686 85.9543 206.265 82.0849 208.897L81.6072 202.522Z" fill="#77A9AA"/>
<path d="M66.461 199.475C61.6391 198.704 58.1925 195.531 55.619 190.834L52.3022 194.363C54.4651 199.099 58.319 202.431 63.2715 204.851L66.461 199.475Z" fill="#77A9AA"/>
<path d="M66.461 139.039C66.461 139.039 78.0865 140.636 89.7193 138.771" stroke="#446177" stroke-miterlimit="10" stroke-linecap="round" stroke-linejoin="round"/>
<path d="M68.5957 79.9065C68.5957 79.9065 66.1184 86.5293 67.9596 92.7387C69.5269 98.0248 73.2187 103.165 82.0501 102.429C88.4345 101.897 90.8454 91.5165 89.2343 85.9196L68.5957 79.9065Z" fill="#422748"/>
<path d="M82.2719 104.204C82.2719 104.204 82.4877 110.039 78.7349 110.039C74.8282 110.039 71.8679 102.739 71.8679 102.739C73.5965 102.423 74.2232 100.076 74.4156 97.8727C74.4729 97.2368 74.4975 96.6132 74.4975 96.0552C74.5057 94.7875 74.4115 93.8564 74.4115 93.8564L81.3542 98.1191C81.3378 98.1847 81.3256 98.2503 81.3133 98.3159C81.0677 99.4934 80.9719 100.453 80.9486 101.245C80.8602 104.271 82.2719 104.204 82.2719 104.204Z" fill="#FCBFA9"/>
<path d="M81.3542 98.1191C81.3378 98.1847 81.3256 98.2503 81.3133 98.3159C81.0677 99.4935 80.9817 100.453 80.9486 101.245C78.7533 101.742 75.7918 99.9408 74.4156 97.8731C74.4729 97.2372 74.4975 96.6136 74.4975 96.0556C74.5056 94.7879 74.4115 93.8568 74.4115 93.8568L81.3542 98.1191Z" fill="#EF9C9C"/>
<path d="M88.8212 116.179C87.4451 120.339 83.6972 120.905 83.6972 120.905C83.6972 120.905 86.0648 118.366 83.9551 115.297C81.8049 112.171 80.0353 110.964 81.0099 102.484L82.0505 102.427C82.0505 102.427 82.3988 102.423 82.935 102.513C84.4668 102.767 87.5552 103.781 88.608 107.826C89.5871 111.576 89.4561 114.259 88.8212 116.179Z" fill="#422748"/>
<path d="M88.8212 116.179C88.6043 105.545 82.9354 102.513 82.9354 102.513C84.4672 102.768 87.5556 103.781 88.6084 107.826C89.5871 111.576 89.4561 114.259 88.8212 116.179Z" fill="#57385B"/>
<path d="M84.9616 91.8371C85.1589 93.1766 86.68 94.0613 88.3583 93.8129C90.0369 93.5648 91.2375 92.2774 91.0398 90.938C90.8421 89.5985 89.3214 88.7137 87.6431 88.9622C85.9649 89.2102 84.7639 90.4976 84.9616 91.8371Z" fill="#EF9C9C"/>
<path d="M69.6722 87.5612C70.0193 93.6534 74.8736 98.9768 80.3685 99.3389C85.8601 99.7005 88.3247 94.9051 88.7242 88.8162C88.8855 86.3566 88.8396 84.4362 88.6047 82.9286C88.5142 82.328 88.2093 74.9234 79.2355 75.3309C73.7348 75.5806 69.138 78.1829 69.6722 87.5612Z" fill="#FCBFA9"/>
<path d="M72.84 89.3222L73.8859 87.6002C73.8859 87.6002 81.269 84.5904 82.6116 80.6753C82.6116 80.6753 87.4762 84.4288 88.6076 86.5284L88.4897 85.8499C88.4897 85.8499 85.5085 77.7487 82.935 77.4322C80.3611 77.1157 72.8879 83.7203 72.479 85.7371C72.0697 87.7539 72.84 89.3222 72.84 89.3222Z" fill="#EF9C9C"/>
<path d="M88.4811 90.8248C88.7267 89.0442 88.784 87.3582 88.4606 85.8482C88.4606 85.8482 86.2612 82.2993 82.3906 78.804C82.1614 78.5949 81.4815 83.674 73.3427 87.3373L72.4499 90.685L68.5015 89.5403C68.5015 89.5403 65.6464 81.2611 70.9796 76.4367C71.463 76.0017 71.946 75.6286 72.4295 75.3166C77.1315 72.2641 81.723 74.5248 81.723 74.5248C81.723 74.5248 85.7369 73.0357 89.4602 78.3567C90.6767 80.0922 91.1274 81.7617 91.1479 83.2964C91.1925 86.8371 88.9317 89.6391 88.4811 90.8248Z" fill="#422748"/>
<path d="M91.1475 83.2964C88.6072 75.5175 82.4635 76.5453 82.4635 76.5453C79.4434 74.2994 75.3861 74.4433 72.4291 75.317C77.1311 72.2645 81.7226 74.5253 81.7226 74.5253C81.7226 74.5253 85.7365 73.0361 89.4598 78.3571C90.6767 80.0927 91.127 81.7622 91.1475 83.2964Z" fill="#57385B"/>
<path d="M66.7033 88.9007C66.1462 90.1344 66.9473 91.7022 68.4933 92.4029C70.0394 93.1036 71.7443 92.6714 72.3014 91.4377C72.8585 90.2041 72.0574 88.6362 70.5114 87.9355C68.9657 87.2348 67.2608 87.667 66.7033 88.9007Z" fill="#FCBFA9"/>
<path d="M78.8519 90.9593C78.8274 91.3357 79.0721 91.6583 79.3988 91.6797C79.7254 91.7014 80.0103 91.4136 80.0353 91.0372C80.0599 90.6608 79.8151 90.3381 79.4884 90.3168C79.1618 90.2955 78.8769 90.5829 78.8519 90.9593Z" fill="#434851"/>
<path d="M85.7656 90.9593C85.741 91.3357 85.9858 91.6583 86.3124 91.6797C86.6391 91.7014 86.924 91.4136 86.9489 91.0372C86.9735 90.6608 86.7287 90.3381 86.4021 90.3168C86.0754 90.2955 85.7905 90.5829 85.7656 90.9593Z" fill="#434851"/>
<path d="M79.8196 86.8093C79.2252 86.3406 77.8953 86.2549 77.0144 86.9663" stroke="#40294D" stroke-miterlimit="10" stroke-linecap="round" stroke-linejoin="round"/>
<path d="M88.001 87.3361C87.4692 86.7055 85.9248 86.4448 85.1708 86.9663" stroke="#40294D" stroke-miterlimit="10" stroke-linecap="round" stroke-linejoin="round"/>
<path d="M83.224 90.3156C83.224 90.3156 83.7291 91.9367 82.9346 93.3746" stroke="#BF5665" stroke-miterlimit="10" stroke-linecap="round" stroke-linejoin="round"/>
<path d="M82.4193 95.1622C82.4193 95.1622 80.1876 96.3717 79.0378 94.0995" stroke="#BF5665" stroke-miterlimit="10" stroke-linecap="round" stroke-linejoin="round"/>
<path d="M75.7684 89.8953L72.8773 89.1823" stroke="white" stroke-miterlimit="10"/>
<path d="M89.2343 90.1692C89.2343 91.6341 88.0484 92.8219 86.5859 92.8219C85.1233 92.8219 83.9375 91.6341 83.9375 90.1692C83.9375 88.7043 85.1233 87.5165 86.5859 87.5165C88.0484 87.5165 89.2343 88.7043 89.2343 90.1692Z" stroke="white" stroke-miterlimit="10"/>
<path d="M78.4168 92.9683C79.8795 92.9683 81.0652 91.7806 81.0652 90.3156C81.0652 88.8506 79.8795 87.6629 78.4168 87.6629C76.9542 87.6629 75.7684 88.8506 75.7684 90.3156C75.7684 91.7806 76.9542 92.9683 78.4168 92.9683Z" stroke="white" stroke-miterlimit="10"/>
<path d="M80.7287 89.0229C81.9297 88.3751 83.0934 88.2734 84.1986 89.0229" stroke="white" stroke-miterlimit="10"/>
<path d="M107.063 132.95C107.063 132.95 107.843 134.324 106.283 134.84C104.722 135.355 102.254 135.192 102.12 134.433C101.986 133.674 107.063 132.95 107.063 132.95Z" fill="#EF9C9C"/>
<path d="M108.321 133.228C108.321 133.228 109.101 134.603 107.54 135.118C105.98 135.632 103.512 135.47 103.378 134.711C103.244 133.952 108.321 133.228 108.321 133.228Z" fill="#EF9C9C"/>
<path d="M110.022 133.228C110.022 133.228 110.802 134.603 109.242 135.118C107.681 135.632 105.189 135.473 105.08 134.711C104.956 133.851 110.042 133.029 110.022 133.228Z" fill="#EF9C9C"/>
<path d="M111.481 132.95C111.481 132.95 112.262 134.324 110.701 134.84C109.14 135.355 106.672 135.192 106.538 134.433C106.405 133.674 111.481 132.95 111.481 132.95Z" fill="#FCBFA9"/>
<path d="M115.777 117.911C115.566 118.88 115.021 119.684 115.021 119.684C115.021 119.684 115.502 120.298 115.587 121.198C115.603 121.341 115.603 121.494 115.592 121.653C115.555 122.209 115.344 122.839 114.784 123.485C113.489 124.988 87.8208 124.776 84.4913 124.363C82.0869 124.061 80.4008 122.082 80.5597 119.737C80.6338 118.684 81.0775 117.556 82.0026 116.476C85.3055 112.628 112.02 114.708 112.02 114.708C115.703 114.799 116.083 116.519 115.777 117.911Z" fill="#D74C58"/>
<path d="M115.592 121.654C115.555 122.209 115.344 122.839 114.784 123.485C113.489 124.988 87.8208 124.776 84.4913 124.364C82.0869 124.062 80.4008 122.082 80.5597 119.737C81.1937 121.119 86.6293 122.654 89.768 122.709C91.8536 122.745 95.0447 122.198 96.3796 122.201C104.317 122.221 112.566 123.066 115.592 121.654Z" fill="#CE454F"/>
<path d="M115.021 119.685C115.021 119.685 115.502 120.299 115.586 121.198C115.269 120.997 114.836 120.817 114.255 120.738C112.437 120.478 99.6154 120.264 95.5916 121.122C93.6424 121.537 92.3018 122.273 91.9584 121.686C91.6097 121.098 92.1647 120.278 93.0472 119.738C93.0472 119.738 92.1225 117.054 92.9044 116.853C93.8872 116.604 94.4537 118.289 96.4901 118.422C99.7034 118.633 111.375 119.801 115.777 117.911C115.565 118.88 115.021 119.685 115.021 119.685Z" fill="#CE454F"/>
<path d="M93.6428 118.565C93.6428 118.565 94.3304 119.777 96.2408 119.738C98.1512 119.699 111.504 120.03 114.807 119.738" stroke="#AD2D37" stroke-width="0.75" stroke-miterlimit="10" stroke-linecap="round" stroke-linejoin="round"/>
<path d="M93.152 120.63C93.152 120.63 93.9252 119.966 95.2752 119.649" stroke="#AD2D37" stroke-width="0.75" stroke-miterlimit="10" stroke-linecap="round" stroke-linejoin="round"/>
<path d="M115.304 127.022C115.093 127.991 114.548 128.796 114.548 128.796C114.548 128.796 115.029 129.41 115.114 130.309C115.129 130.453 115.129 130.606 115.119 130.765C115.082 131.321 114.87 131.95 114.31 132.596C113.016 134.1 87.3476 133.888 84.0181 133.475C81.6137 133.173 79.9276 131.193 80.0865 128.848C80.1605 127.795 80.6043 126.667 81.5294 125.587C84.8323 121.739 111.547 123.82 111.547 123.82C115.23 123.91 115.61 125.631 115.304 127.022Z" fill="#F4A378"/>
<path d="M115.119 130.765C115.082 131.321 114.87 131.951 114.31 132.596C113.016 134.1 87.3476 133.888 84.0181 133.475C81.6137 133.173 79.9276 131.194 80.0865 128.849C80.7205 130.23 82.1315 131.765 85.2707 131.802C90.714 131.866 110.674 132.84 115.119 130.765Z" fill="#EF9073"/>
<path d="M114.548 128.796C114.548 128.796 115.029 129.41 115.114 130.309C114.796 130.109 114.363 129.929 113.782 129.849C111.964 129.589 99.1426 129.375 95.1189 130.233C93.1696 130.648 91.829 131.384 91.4852 130.797C91.1365 130.209 91.6915 129.389 92.574 128.849C92.574 128.849 91.6493 126.165 92.4312 125.964C93.414 125.715 93.9805 127.4 96.0169 127.533C99.2302 127.744 110.902 128.912 115.303 127.022C115.093 127.991 114.548 128.796 114.548 128.796Z" fill="#EF9073"/>
<path d="M93.1696 127.677C93.1696 127.677 93.8573 128.888 95.7677 128.849C97.678 128.81 111.031 129.141 114.333 128.849" stroke="#CC5A52" stroke-width="0.75" stroke-miterlimit="10" stroke-linecap="round" stroke-linejoin="round"/>
<path d="M92.6788 129.741C92.6788 129.741 93.4521 129.077 94.802 128.76" stroke="#CC5A52" stroke-width="0.75" stroke-miterlimit="10" stroke-linecap="round" stroke-linejoin="round"/>
<path d="M88.3541 134.395C88.3541 134.395 88.7229 135.014 88.0225 135.421C88.0225 135.421 88.3913 136.081 87.359 136.413C87.359 136.413 87.2035 136.914 85.6181 137.394C84.6517 137.685 82.0712 137.599 80.2075 137.488C79.0156 137.418 78.1146 137.336 78.1146 137.336L78.3725 132.097C78.3725 132.097 78.6099 131.626 79.1384 131.121C79.4495 130.822 79.8633 130.514 80.3836 130.284C81.7966 129.665 81.8703 129.738 82.7184 129.353C83.5661 128.963 83.2223 130.879 81.1335 132.097C81.1335 132.097 83.6402 132.983 85.1719 133.193C87.0315 133.447 89.2022 132.803 89.2759 133.427C89.3496 134.054 88.3541 134.395 88.3541 134.395Z" fill="#FCBFA9"/>
<path d="M88.1225 134.507C86.8458 134.868 85.7946 134.959 84.3284 134.719" stroke="#EF9C9C" stroke-width="0.75" stroke-miterlimit="10" stroke-linecap="round" stroke-linejoin="round"/>
<path d="M87.7484 135.451C86.8012 135.821 85.2318 136.049 83.9543 135.778" stroke="#EF9C9C" stroke-width="0.75" stroke-miterlimit="10" stroke-linecap="round" stroke-linejoin="round"/>
<path d="M87.0492 136.469C86.1053 136.853 84.5953 136.999 83.2551 136.796" stroke="#EF9C9C" stroke-width="0.75" stroke-miterlimit="10" stroke-linecap="round" stroke-linejoin="round"/>
<path d="M80.2072 137.488C79.0153 137.418 78.1143 137.336 78.1143 137.336L78.3722 132.097C78.3722 132.097 78.6096 131.626 79.1381 131.121L80.2072 137.488Z" fill="#EF9C9C"/>
<path d="M67.6845 106.577L66.5265 104.271C66.5265 104.271 64.1573 104.768 62.768 107.829C61.3787 110.89 59.5728 133.793 61.3787 136.354C63.1847 138.915 79.0435 138.295 79.0435 138.295V130.31C79.0435 130.31 69.8785 129.561 69.5183 128.981C69.274 128.587 69.6301 116.225 69.6301 116.225L67.6845 106.577Z" fill="#F7F2ED"/>
<path d="M69.1683 129.128C67.5732 129.3 66.1114 130.4 65.5027 131.887" stroke="#E5DDD8" stroke-miterlimit="10" stroke-linecap="round" stroke-linejoin="round"/>
<path d="M68.3304 128.677C66.6599 128.517 64.9383 128.961 63.5527 129.909" stroke="#E5DDD8" stroke-miterlimit="10" stroke-linecap="round" stroke-linejoin="round"/>
<path d="M67.0496 107.366C68.2044 109.853 69.2748 112.972 69.5249 115.704" stroke="#E5DDD8" stroke-miterlimit="10" stroke-linecap="round" stroke-linejoin="round"/>
<path d="M189.176 85.9507C189.176 87.4784 190.533 90.4804 186.755 90.7965C182.745 91.1319 181.971 88.4489 181.971 86.9212C181.971 85.3935 185.695 84.2484 186.755 84.2484C189.38 84.2484 189.176 84.4231 189.176 85.9507Z" fill="#40294D"/>
<path d="M189.421 95.5971C189.421 95.5971 184.47 105.182 181.09 104.681C177.707 104.179 176.212 97.7221 176.212 97.7221C176.212 97.7221 177.823 97.4351 177.922 94.6303C177.954 93.6865 177.816 92.4594 177.385 90.8592L186.193 86.4906C186.193 86.4906 186.078 87.4475 186.084 88.7444C186.097 91.3011 186.595 95.1781 189.421 95.5971Z" fill="#FCBFA9"/>
<path d="M186.193 86.4903C186.193 86.4903 186.078 87.4472 186.084 88.7441C184.75 90.9777 181.561 95.4652 177.921 94.6304C177.954 93.6866 177.816 92.4595 177.384 90.8593L186.193 86.4903Z" fill="#EF9C9C"/>
<path d="M173.705 85.4665C173.52 86.7252 172.09 87.5567 170.513 87.3234C168.935 87.0901 167.807 85.8806 167.992 84.6215C168.178 83.3628 169.607 82.5313 171.184 82.7646C172.762 82.9983 173.891 84.2078 173.705 85.4665Z" fill="#EF9C9C"/>
<path d="M172.462 73.0029C172.462 73.0029 169.08 72.6659 168.751 76.5708C168.217 82.8979 170.849 84.6646 170.849 84.6646L172.462 73.0029Z" fill="#40294D"/>
<path d="M188.074 81.4485C188.449 87.1709 183.185 92.1766 178.022 92.5165C172.861 92.8564 170.545 88.3496 170.169 82.6277C170.017 80.3165 170.06 78.5113 170.281 77.0947C170.366 76.5302 170.478 76.0271 170.62 75.5777C171.727 72.023 174.465 71.9353 178.044 71.6995C183.209 71.3596 187.698 75.7261 188.074 81.4485Z" fill="#FCBFA9"/>
<path d="M186.794 83.7351C186.794 83.7351 181.974 81.7741 181.018 77.0193C181.018 77.0193 173.743 79.4957 170.281 77.0948C170.366 76.5302 170.478 76.0271 170.62 75.5777C172.376 74.0501 176.14 73.1641 179.407 72.1321L185.306 75.4568L186.794 83.7351Z" fill="#EF9C9C"/>
<path d="M190.458 75.1448C190.813 79.3989 189.528 82.9044 188.302 83.4313C185.659 84.5674 183.746 82.1135 182.288 78.6589C180.83 75.2042 181.832 71.7118 183.021 70.9205C186.389 68.6795 190.147 71.4068 190.458 75.1448Z" fill="#40294D"/>
<path d="M177.135 76.5765C173.899 77.1197 170.923 76.5584 169.282 75.2764C169.061 75.1025 168.862 74.918 168.696 74.7188C169.188 68.2551 180.656 68.2186 183.067 68.2621C183.953 68.8414 184.535 69.5946 184.683 70.4855C185.117 73.071 181.737 75.8016 177.135 76.5765Z" fill="#40294D"/>
<path d="M183.067 68.2621C180.656 68.2187 169.188 68.2547 168.697 74.7188C168.331 74.299 168.096 73.8209 168.01 73.2994C167.576 70.7102 170.952 67.9833 175.558 67.2084C178.577 66.698 181.379 67.1539 183.067 68.2621Z" fill="#553A60"/>
<path d="M180.2 83.708C180.223 84.0619 179.993 84.3649 179.685 84.3849C179.378 84.405 179.111 84.1348 179.087 83.781C179.064 83.4272 179.294 83.1242 179.602 83.1041C179.909 83.084 180.176 83.3546 180.2 83.708Z" fill="#434851"/>
<path d="M173.507 84.0004C173.531 84.3542 173.301 84.6572 172.993 84.6773C172.686 84.6974 172.419 84.4272 172.395 84.0733C172.372 83.7195 172.602 83.4165 172.909 83.3964C173.216 83.3763 173.484 83.6465 173.507 84.0004Z" fill="#434851"/>
<path d="M178.538 80.3432C179.187 79.6101 180.96 79.5404 181.586 80.3432" stroke="#40294D" stroke-miterlimit="10" stroke-linecap="round" stroke-linejoin="round"/>
<path d="M170.653 80.6445C171.026 80.2743 171.543 80.0541 172.069 80.0426C172.594 80.0311 173.121 80.2288 173.509 80.5826" stroke="#40294D" stroke-miterlimit="10" stroke-linecap="round" stroke-linejoin="round"/>
<path d="M175.103 83.2086C175.103 83.2086 174.864 85.5608 175.61 86.9118" stroke="#BF5665" stroke-miterlimit="10" stroke-linecap="round" stroke-linejoin="round"/>
<path d="M176.449 88.7301C176.449 88.7301 178.505 88.7301 180.062 86.6457" stroke="#BF5665" stroke-miterlimit="10" stroke-linecap="round" stroke-linejoin="round"/>
<path d="M190.864 82.7072C191.387 83.8667 190.634 85.3402 189.182 85.9987C187.729 86.6572 186.127 86.2508 185.603 85.0918C185.079 83.9323 185.832 82.4588 187.285 81.8003C188.737 81.1418 190.34 81.5477 190.864 82.7072Z" fill="#FCBFA9"/>
<path d="M200.446 212.53L190.859 212.822L186.144 154.988L179.717 212.822L169.521 212.53L173.299 137.832L173.357 134.074L198.956 132.325L198.989 134.005L200.446 212.53Z" fill="#D74C59"/>
<path d="M186.144 154.988L185.51 150.222L181.703 149.324L180.688 204.091L186.144 154.988Z" fill="#C44141"/>
<path d="M198.989 134.005L173.299 137.832L173.357 134.074L198.956 132.325L198.989 134.005Z" fill="#C44141"/>
<path d="M197.511 131.715L199.285 211.089" stroke="#AA333F" stroke-miterlimit="10" stroke-linecap="round" stroke-linejoin="round"/>
<path d="M195.525 132.103C195.525 132.103 195.088 139.726 197.511 139.726" stroke="#AA333F" stroke-miterlimit="10" stroke-linecap="round" stroke-linejoin="round"/>
<path d="M190.949 211.49L200.176 211.089" stroke="#AA333F" stroke-miterlimit="10" stroke-linecap="round" stroke-linejoin="round"/>
<path d="M169.852 211.089L179.67 211.49" stroke="#AA333F" stroke-miterlimit="10" stroke-linecap="round" stroke-linejoin="round"/>
<path d="M183.416 132.325C183.416 132.325 183.647 143.134 184.415 149.574" stroke="#AA333F" stroke-miterlimit="10" stroke-linecap="round" stroke-linejoin="round"/>
<path d="M185.241 133.143C185.241 133.351 187.117 142 183.798 141.951" stroke="#AA333F" stroke-miterlimit="10" stroke-linecap="round" stroke-linejoin="round"/>
<path d="M180.17 219.268L161.321 219.255C161.307 218.785 161.362 218.345 161.476 217.936C162.629 213.823 169.625 212.488 169.625 212.488L179.717 212.822L180.079 217.961L180.17 219.268Z" fill="#42284C"/>
<path d="M180.17 219.268C173.736 220.015 167.448 220.033 161.321 219.255C161.307 218.785 161.362 218.345 161.476 217.936C167.504 218.402 173.717 218.378 180.079 217.961L180.17 219.268Z" fill="#89798E"/>
<path d="M166.246 213.739C166.459 214.261 166.633 214.803 166.765 215.359" stroke="#89798E" stroke-width="3" stroke-miterlimit="10" stroke-linecap="round" stroke-linejoin="round"/>
<path d="M167.778 213.057C167.991 213.579 168.165 214.121 168.297 214.677" stroke="#89798E" stroke-width="3" stroke-miterlimit="10" stroke-linecap="round" stroke-linejoin="round"/>
<path d="M169.333 212.654C169.547 213.176 169.72 213.719 169.852 214.274" stroke="#89798E" stroke-width="3" stroke-miterlimit="10" stroke-linecap="round" stroke-linejoin="round"/>
<path d="M190.406 219.268L209.256 219.255C209.269 218.785 209.215 218.345 209.1 217.936C207.948 213.823 200.952 212.488 200.952 212.488L190.86 212.822L190.497 217.961L190.406 219.268Z" fill="#42284C"/>
<path d="M190.406 219.268C197.144 219.888 203.62 220.149 209.256 219.255C209.269 218.785 209.215 218.345 209.1 217.936C204.319 218.376 197.707 218.26 190.497 217.961L190.406 219.268Z" fill="#89798E"/>
<path d="M204.331 213.739C204.117 214.261 203.944 214.803 203.812 215.359" stroke="#89798E" stroke-width="3" stroke-miterlimit="10" stroke-linecap="round" stroke-linejoin="round"/>
<path d="M202.799 213.057C202.585 213.579 202.412 214.121 202.28 214.677" stroke="#89798E" stroke-width="3" stroke-miterlimit="10" stroke-linecap="round" stroke-linejoin="round"/>
<path d="M201.243 212.654C201.03 213.176 200.856 213.719 200.724 214.274" stroke="#89798E" stroke-width="3" stroke-miterlimit="10" stroke-linecap="round" stroke-linejoin="round"/>
<path d="M176.449 104.265C176.053 104.221 171.363 99.5033 171.363 99.5033C171.363 99.5033 168.772 100.334 164.438 110.579L167.973 117.905L176.449 104.265Z" fill="#573A60"/>
<path d="M177.205 96.9396C176.484 99.8485 177.258 102.182 180.062 103.732C183.641 101.967 186.198 98.7755 188.405 95.0962C188.405 95.0962 196.094 95.7071 197.359 98.6169C198.676 101.645 199.308 133.102 199.308 133.102L173.171 134.77C173.171 134.77 168.646 105.598 169.671 101.903C170.696 98.2093 177.205 96.9396 177.205 96.9396Z" fill="#42284C"/>
<path d="M165.1 113.529C165.1 113.529 165.107 113.645 165.115 113.861C164.742 113.649 164.526 113.529 164.526 113.529H165.1Z" fill="#52767F"/>
<path d="M119.194 139.721C119.194 139.721 118.707 144.105 119.819 144.593C120.931 145.08 125.795 146.54 127.81 145.566C129.825 144.593 130.033 140.255 130.033 140.255L119.194 139.721Z" fill="#446472"/>
<path d="M140.076 113.304C140.076 112.792 137.943 105.279 137.943 105.279C137.943 105.279 128.503 110.251 126.275 113.856C121.917 120.911 115.525 137.865 119.446 141.295C123.367 144.726 128.629 144.126 130.187 142.518C131.744 140.911 132.233 129.527 135.813 126.282C139.394 123.038 140.076 113.304 140.076 113.304Z" fill="#52767F"/>
<path d="M132.403 126.388C130.796 124.875 129.418 123.118 128.329 121.197" stroke="#446472" stroke-miterlimit="10" stroke-linecap="round" stroke-linejoin="round"/>
<path d="M132.715 128.383C130.705 128.656 128.608 128.249 126.845 127.243" stroke="#446472" stroke-miterlimit="10" stroke-linecap="round" stroke-linejoin="round"/>
<path d="M133.34 142.518C133.34 142.518 132.317 147.655 133.34 148.224C134.363 148.793 139.406 150.274 148.024 150.16C156.641 150.046 164.381 149.197 166.985 147.655C167.954 147.082 166.673 141.295 166.673 141.295L133.34 142.518Z" fill="#446472"/>
<path d="M167.659 143.521C165.207 146.987 137.535 149.459 132.554 143.521C132.204 143.104 131.942 142.218 131.754 140.98C130.564 133.146 132.346 111.424 133.936 108.559C137.77 101.654 162.763 99.7034 165.388 107.966C165.777 109.18 166.374 112.708 166.943 117.107C168.217 126.942 169.353 141.126 167.659 143.521Z" fill="#5C8088"/>
<path d="M167.659 143.521C165.207 146.987 137.535 149.459 132.554 143.521C132.204 143.104 131.942 142.218 131.754 140.98C154.594 150.039 163.32 135.501 163.005 124.945L164.438 125.401C164.438 125.401 164.026 116.397 163.995 115.43C164.618 115.784 165.689 116.39 166.943 117.107C168.217 126.942 169.353 141.126 167.659 143.521Z" fill="#52767F"/>
<path d="M174.873 144.465C174.873 144.465 175.699 148.272 177.022 148.107C178.344 147.941 183.53 145.624 183.664 144.796C183.797 143.968 183.295 139.117 183.295 139.117L174.873 144.465Z" fill="#446472"/>
<path d="M158.659 111.084L161.631 104.265C161.631 104.265 173.448 110.991 177.135 116.502C180.823 122.013 185.048 139.07 183.863 141.295C182.678 143.52 177.028 146.579 174.489 145.238C171.951 143.897 170.525 129.869 168.514 128.503C166.502 127.136 159.341 121.33 158.659 111.084Z" fill="#5C8088"/>
<path d="M162.155 104.511C162.155 104.511 156.739 108.783 144.164 109.481C141.516 109.627 137.324 109.431 135.726 107.233C135.28 106.62 135.238 105.621 135.322 104.712C135.365 104.222 135.446 103.759 135.523 103.393C135.892 101.589 139.098 100.594 147.909 100.594C154.83 100.594 159.126 102.587 161.02 103.732C161.782 104.187 162.155 104.511 162.155 104.511Z" fill="#6B9699"/>
<path d="M162.155 104.511C162.155 104.511 156.739 108.783 144.164 109.481C141.516 109.627 137.324 109.431 135.726 107.233C135.28 106.62 135.238 105.621 135.322 104.712C137.828 105.274 146.323 106.639 161.02 103.732C161.782 104.187 162.155 104.511 162.155 104.511Z" fill="#618B91"/>
<path d="M162.154 104.511C162.154 104.511 142.249 109.124 135.289 106.005C135.289 106.005 133.175 106.646 134.15 109.751C135.124 112.856 140.126 118.402 147.654 117.87C155.182 117.337 162.154 104.511 162.154 104.511Z" fill="#6B9699"/>
<path d="M168.896 127.765C168.934 125.506 170.085 123.293 171.911 121.966" stroke="#446472" stroke-miterlimit="10" stroke-linecap="round" stroke-linejoin="round"/>
<path d="M159.782 113.529C160.013 119.277 162.39 122.99 166.227 126.597" stroke="#446472" stroke-miterlimit="10" stroke-linecap="round" stroke-linejoin="round"/>
<path d="M156.805 120.579C158.833 122.857 161.511 124.549 164.438 125.401" stroke="#446472" stroke-miterlimit="10" stroke-linecap="round" stroke-linejoin="round"/>
<path d="M170.139 128C171.091 127.11 172.208 126.397 173.417 125.909C173.816 125.748 174.235 125.61 174.666 125.62C175.096 125.631 175.543 125.815 175.772 126.18C176.1 126.699 175.882 127.425 175.433 127.842C174.984 128.26 174.365 128.436 173.765 128.56C173.164 128.684 172.543 128.776 172.006 129.071" stroke="#446472" stroke-miterlimit="10" stroke-linecap="round" stroke-linejoin="round"/>
<path d="M177.336 111.433C175.83 109.363 173.442 108.377 172.449 108.379C171.72 108.38 169.408 108.889 168.386 109.873C167.139 111.076 166.362 112.861 166.816 113.204C167.622 113.815 168.412 112.597 169.387 111.792C170.618 110.776 171.256 110.801 171.256 110.801C171.256 110.801 170.446 111.186 169.558 112C168.51 112.962 167.665 114.823 167.929 115.223C168.651 116.32 169.592 114.39 170.801 113.649C172.01 112.908 173.228 112.657 173.228 112.657C173.228 112.657 172.037 113.045 171.123 113.902C170.114 114.848 169.639 116.41 170.094 116.741C170.505 117.04 171.389 115.94 172.357 115.262C173.425 114.515 174.154 114.311 174.154 114.311C174.154 114.311 173.348 114.659 172.514 115.55C171.758 116.36 171.388 117.404 171.688 117.759C171.988 118.115 172.899 117.334 173.774 116.741C174.734 116.09 175.402 116.264 175.402 116.264C175.402 116.264 176.925 117.662 178.119 117.01C179.743 116.123 178.94 113.639 177.336 111.433Z" fill="#FCBFA9"/>
<path d="M127.331 113.384C127.331 113.384 123.701 111.471 122.81 113.292C122.267 114.4 125.486 119.641 126.69 119.322C127.893 119.003 125.714 114.545 125.714 114.545L127.331 113.384Z" fill="#FCBFA9"/>
<path d="M128.634 111.529C128.634 111.529 125.004 109.616 124.113 111.437C123.57 112.545 126.789 117.786 127.992 117.467C129.196 117.148 127.017 112.69 127.017 112.69L128.634 111.529Z" fill="#FCBFA9"/>
<path d="M130.367 109.737C130.367 109.737 126.737 107.824 125.845 109.645C125.303 110.753 128.521 115.994 129.725 115.675C130.929 115.356 128.75 110.898 128.75 110.898L130.367 109.737Z" fill="#FCBFA9"/>
<path d="M132.438 108.544C132.438 108.544 128.861 106.711 127.97 108.531C127.427 109.64 130.645 114.88 131.849 114.561C133.053 114.242 130.874 109.784 130.874 109.784C131.355 109.336 131.868 108.914 132.438 108.544Z" fill="#FCBFA9"/>
<path d="M128.076 109.185C128.379 110.28 128.756 111.236 129.249 111.972" stroke="#BF5665" stroke-width="0.75" stroke-miterlimit="10" stroke-linecap="round" stroke-linejoin="round"/>
<path d="M125.983 110.776C126.302 111.805 126.78 112.737 127.417 113.572" stroke="#BF5665" stroke-width="0.75" stroke-miterlimit="10" stroke-linecap="round" stroke-linejoin="round"/>
<path d="M124.267 112.728C124.879 114.239 125.578 115.455 126.493 116.482" stroke="#BF5665" stroke-width="0.75" stroke-miterlimit="10" stroke-linecap="round" stroke-linejoin="round"/>
<path d="M195.493 115.43C195.493 115.43 195.077 116.714 194.392 118.441C193.002 121.953 190.493 127.289 188.091 127.347C184.511 127.432 177.205 117.11 177.205 117.11L177.013 113.694L177.159 111.208L185.693 117.904L187.887 112.626L188.091 112.133L195.493 115.43Z" fill="#FCBFA9"/>
<path d="M195.493 115.43C195.493 115.43 195.077 116.714 194.392 118.441L187.887 112.627L188.091 112.133L195.493 115.43Z" fill="#EF9C9C"/>
<path d="M187.411 111.841L196.654 117.849C196.654 117.849 199.789 109.207 199.862 106.451C199.936 103.694 199.416 98.5828 195.493 96.8752C191.57 95.1675 187.411 111.841 187.411 111.841Z" fill="#573A60"/>
<path d="M178.807 167.911L127.973 165.701L75.6456 167.911L130.129 181.825L178.807 167.911Z" fill="#D16961"/>
<path d="M115.913 168.845C115.913 168.845 128.843 167.178 132.346 167.294C135.85 167.41 155.818 169.92 155.818 169.92L126.829 174.649L115.913 168.845Z" fill="#573A60"/>
<path d="M88.0779 169.876C88.0779 169.876 110.447 167.65 115.133 167.911C119.819 168.172 132.084 169.746 132.345 171.702C132.605 173.658 102.146 175.874 102.146 175.874L88.0779 169.876Z" fill="#5C8088"/>
<path d="M178.807 167.911L189.666 190.048H166.572L178.807 167.911Z" fill="#D16961"/>
<path d="M178.955 224.091L112.345 228.363V170.25L178.807 167.911L178.955 224.091Z" fill="#F4A279"/>
<path d="M112.345 228.363L75.8409 221.7L75.6456 167.911L112.345 170.25V228.363Z" fill="#EA8E6E"/>
<path d="M112.344 170.251L105.022 192.822L67.7995 188.793L68.5461 186.804L68.5502 186.797L75.646 167.912L109.283 170.056L112.344 170.251Z" fill="#F4A279"/>
<path d="M109.283 170.056L76.9985 170.969L68.5502 186.797L75.646 167.913L109.283 170.056Z" fill="#F7BD8D"/>
<path d="M120.997 196.28C120.997 197.381 120.997 211.643 120.997 211.643L174.034 207.682L173.671 193.786L120.997 196.28Z" fill="#F7F2ED"/>
<path d="M133.829 207.147L163.835 205.874L163.91 207.637L133.904 208.911L133.829 207.147Z" fill="#C4FFE6"/>
<path d="M140.23 205.108L135.988 205.288L135.698 198.458L136.988 198.404L137.223 203.962L140.176 203.837L140.23 205.108Z" fill="#00C797"/>
<path d="M140.189 203.817C140.153 202.969 140.74 202.471 141.501 202.323L142.625 202.102C142.885 202.052 142.963 201.914 142.956 201.75C142.942 201.413 142.678 201.144 142.154 201.166C141.612 201.189 141.329 201.559 141.309 201.974L140.196 201.78C140.239 201.035 140.868 200.188 142.101 200.136C143.559 200.074 144.137 200.899 144.177 201.853L144.276 204.184C144.287 204.434 144.329 204.77 144.364 204.933L143.224 204.981C143.191 204.857 143.161 204.598 143.153 204.415C142.936 204.8 142.511 205.147 141.828 205.176C140.847 205.217 140.22 204.559 140.189 203.817ZM142.05 204.211C142.573 204.189 143.048 203.908 143.012 203.07L143.003 202.858L141.973 203.066C141.657 203.127 141.413 203.321 141.428 203.687C141.44 203.966 141.648 204.228 142.05 204.211Z" fill="#00C797"/>
<path d="M146.034 202.131L146.15 204.857L144.907 204.91L144.706 200.17L145.911 200.119L145.936 200.707C146.195 200.204 146.737 199.959 147.233 199.938C148.373 199.889 148.931 200.705 148.976 201.745L149.102 204.732L147.86 204.785L147.742 202.02C147.72 201.49 147.45 201.086 146.852 201.112C146.31 201.135 146.011 201.582 146.034 202.131Z" fill="#00C797"/>
<path d="M153.796 197.546L154.056 203.663C154.069 203.981 154.102 204.327 154.129 204.518L152.943 204.569C152.92 204.473 152.882 204.243 152.873 204.022C152.683 204.406 152.228 204.715 151.611 204.741C150.303 204.797 149.324 203.777 149.263 202.341C149.204 200.954 150.064 199.827 151.363 199.772C152.157 199.738 152.545 200.06 152.687 200.304L152.572 197.597L153.796 197.546ZM150.515 202.288C150.551 203.136 151.058 203.616 151.712 203.588C152.348 203.561 152.822 203.04 152.785 202.182C152.749 201.334 152.234 200.883 151.598 200.91C150.963 200.937 150.479 201.44 150.515 202.288Z" fill="#00C797"/>
<path d="M155.569 201.543L157.625 201.456C157.586 200.984 157.267 200.535 156.557 200.565C155.912 200.592 155.579 201.108 155.569 201.543ZM157.798 202.684L158.849 202.957C158.65 203.786 157.95 204.501 156.82 204.549C155.558 204.603 154.407 203.715 154.339 202.116C154.275 200.604 155.317 199.575 156.494 199.525C157.915 199.465 158.805 200.363 158.869 201.885C158.877 202.068 158.866 202.262 158.867 202.281L155.578 202.421C155.633 203.046 156.166 203.477 156.783 203.45C157.362 203.426 157.667 203.114 157.798 202.684Z" fill="#00C797"/>
<path d="M161.898 199.421L161.953 200.712C161.811 200.689 161.689 200.685 161.577 200.69C160.942 200.717 160.404 201.058 160.447 202.079L160.539 204.246L159.297 204.299L159.096 199.56L160.301 199.508L160.331 200.212C160.585 199.574 161.215 199.431 161.608 199.414C161.71 199.41 161.804 199.416 161.898 199.421Z" fill="#00C797"/>
<g filter="url(#filter0_b_291_484)">
<path d="M74.2388 33.1846H78.377C82.7409 33.1846 86.39 30.476 86.39 24.6825C86.39 18.889 82.7785 16.1428 78.4146 16.1428H74.2388V33.1846ZM78.5651 38H69.0472V11.3274H78.6027C86.2019 11.3274 91.7697 16.2556 91.7697 24.6825C91.7697 33.1094 86.1643 38 78.5651 38ZM104.318 34.0123C106.764 34.0123 109.021 32.2441 109.021 28.7455C109.021 25.2468 106.764 23.4787 104.318 23.4787C101.873 23.4787 99.6158 25.2468 99.6158 28.7455C99.6158 32.2065 101.873 34.0123 104.318 34.0123ZM104.318 18.9267C109.848 18.9267 114.024 23.0272 114.024 28.7455C114.024 34.4261 109.848 38.5643 104.318 38.5643C98.7882 38.5643 94.6124 34.4261 94.6124 28.7455C94.6124 23.0272 98.7882 18.9267 104.318 18.9267ZM122.977 27.3535V38H117.974V19.491H122.827V21.7858C123.955 19.8672 126.175 19.0019 128.169 19.0019C132.758 19.0019 134.865 22.2748 134.865 26.3378V38H129.862V27.2031C129.862 25.134 128.846 23.5163 126.438 23.5163C124.256 23.5163 122.977 25.2092 122.977 27.3535ZM138.815 32.9589C138.815 29.6484 141.26 27.805 144.345 27.3535L148.897 26.6764C149.95 26.5259 150.289 25.9992 150.289 25.3597C150.289 24.043 149.273 22.952 147.166 22.952C144.984 22.952 143.781 24.3439 143.63 25.9616L139.191 25.0211C139.492 22.1244 142.163 18.9267 147.129 18.9267C152.997 18.9267 155.179 22.2372 155.179 25.9616V35.0656C155.179 36.0438 155.292 37.3605 155.405 38H150.815C150.703 37.5109 150.627 36.4952 150.627 35.7804C149.687 37.2476 147.919 38.5267 145.172 38.5267C141.222 38.5267 138.815 35.8557 138.815 32.9589ZM146.226 34.8023C148.333 34.8023 150.289 33.7866 150.289 30.5136V29.686L146.113 30.3255C144.834 30.5136 143.818 31.2284 143.818 32.658C143.818 33.7489 144.608 34.8023 146.226 34.8023ZM166.282 13.9608V19.491H170.007V23.9301H166.282V31.6798C166.282 33.2975 167.035 33.8242 168.464 33.8242C169.066 33.8242 169.743 33.7489 170.007 33.6737V37.8119C169.555 38 168.652 38.2633 167.185 38.2633C163.574 38.2633 161.316 36.119 161.316 32.5451V23.9301H157.968V19.491H158.909C160.865 19.491 161.768 18.2119 161.768 16.5566V13.9608H166.282ZM177.722 26.6388H185.999C185.923 24.7954 184.72 22.9896 181.86 22.9896C179.265 22.9896 177.835 24.9459 177.722 26.6388ZM186.488 31.4541L190.664 32.6956C189.723 35.8933 186.789 38.5643 182.237 38.5643C177.158 38.5643 172.681 34.9152 172.681 28.6702C172.681 22.7639 177.045 18.9267 181.785 18.9267C187.503 18.9267 190.927 22.5758 190.927 28.5198C190.927 29.2345 190.852 29.9869 190.852 30.0622H177.609C177.722 32.5075 179.791 34.2756 182.274 34.2756C184.607 34.2756 185.886 33.1094 186.488 31.4541Z" fill="#00C797"/>
</g>
<defs>
<filter id="filter0_b_291_484" x="65.0472" y="7.32742" width="129.88" height="35.2369" filterUnits="userSpaceOnUse" color-interpolation-filters="sRGB">
<feFlood flood-opacity="0" result="BackgroundImageFix"/>
<feGaussianBlur in="BackgroundImageFix" stdDeviation="2"/>
<feComposite in2="SourceAlpha" operator="in" result="effect1_backgroundBlur_291_484"/>
<feBlend mode="normal" in="SourceGraphic" in2="effect1_backgroundBlur_291_484" result="shape"/>
</filter>
</defs>
</svg>
