<svg width="126" height="126" viewBox="0 0 126 126" fill="none" xmlns="http://www.w3.org/2000/svg">
<g filter="url(#filter0_d_214_93)">
<path fill-rule="evenodd" clip-rule="evenodd" d="M63.0348 21C39.7906 21 21 40.2499 21 64.0647C21 83.1011 33.0398 99.215 49.7422 104.918C51.8304 105.347 52.5953 103.992 52.5953 102.852C52.5953 101.853 52.5265 98.4311 52.5265 94.8654C40.8334 97.4327 38.3985 89.7318 38.3985 89.7318C36.5193 84.7409 33.735 83.4581 33.735 83.4581C29.9079 80.82 34.0138 80.82 34.0138 80.82C38.2591 81.1052 40.4867 85.2405 40.4867 85.2405C44.2441 91.7995 50.2989 89.9462 52.7347 88.8052C53.0823 86.0245 54.1966 84.0995 55.3796 83.0302C46.0536 82.0319 36.2414 78.3245 36.2414 61.7827C36.2414 57.077 37.9106 53.227 40.5555 50.2328C40.1382 49.1635 38.6764 44.7422 40.9737 38.8246C40.9737 38.8246 44.5229 37.6836 52.5256 43.245C55.9519 42.3024 59.4853 41.8228 63.0348 41.8188C66.584 41.8188 70.202 42.3184 73.543 43.245C81.5466 37.6836 85.0958 38.8246 85.0958 38.8246C87.3931 44.7422 85.9304 49.1635 85.5131 50.2328C88.2277 53.227 89.8281 57.077 89.8281 61.7827C89.8281 78.3245 80.0159 81.9601 70.6202 83.0302C72.1517 84.3847 73.4733 86.9511 73.4733 91.0155C73.4733 96.7904 73.4045 101.425 73.4045 102.851C73.4045 103.992 74.1703 105.347 76.2576 104.919C92.96 99.2142 105 83.1011 105 64.0647C105.069 40.2499 86.2092 21 63.0348 21Z" fill="#DFE4E9"/>
</g>
<defs>
<filter id="filter0_d_214_93" x="0" y="0" width="126" height="126" filterUnits="userSpaceOnUse" color-interpolation-filters="sRGB">
<feFlood flood-opacity="0" result="BackgroundImageFix"/>
<feColorMatrix in="SourceAlpha" type="matrix" values="0 0 0 0 0 0 0 0 0 0 0 0 0 0 0 0 0 0 127 0" result="hardAlpha"/>
<feOffset/>
<feGaussianBlur stdDeviation="10.5"/>
<feComposite in2="hardAlpha" operator="out"/>
<feColorMatrix type="matrix" values="0 0 0 0 1 0 0 0 0 1 0 0 0 0 1 0 0 0 1 0"/>
<feBlend mode="normal" in2="BackgroundImageFix" result="effect1_dropShadow_214_93"/>
<feBlend mode="normal" in="SourceGraphic" in2="effect1_dropShadow_214_93" result="shape"/>
</filter>
</defs>
</svg>
