<svg width="235" height="43" viewBox="0 0 235 43" fill="none" xmlns="http://www.w3.org/2000/svg">
<path d="M28.46 43H0.62V0.459997H10.1V33.94H28.46V43ZM63.2216 43L60.1616 34.36H43.7216L40.6616 43H30.7016L46.7216 0.459997H57.7016L73.5416 43H63.2216ZM52.0616 11.02L46.8416 25.72H57.1616L52.0616 11.02ZM115.744 43H105.724L88.2041 15.04V43H78.7841V0.459997H90.3041L106.264 26.32V0.459997H115.744V43Z" fill="#00AD8E"/>
<path d="M134.377 34.06H139.897C146.437 34.06 151.777 30.28 151.777 21.76C151.777 13.24 146.437 9.4 139.897 9.4H134.377V34.06ZM140.257 43H124.897V0.459997H140.317C153.097 0.459997 161.677 8.62 161.677 21.76C161.677 34.9 153.097 43 140.257 43ZM195.433 43H168.433V0.459997H195.373V9.4H177.913V17.5H193.753V25.84H177.913V34H195.433V43ZM223.873 43L216.253 27.16H212.893V43H203.413V0.459997H220.273C228.673 0.459997 234.073 6.22 234.073 13.78C234.073 19.54 230.893 23.92 225.673 25.78L234.313 43H223.873ZM212.893 19H218.473C222.373 19 224.473 16.84 224.473 13.84C224.473 10.66 222.373 8.68 218.473 8.68H212.893V19Z" fill="#F6F6F6"/>
</svg>
