<svg width="100" height="100" viewBox="0 0 100 100" fill="none" xmlns="http://www.w3.org/2000/svg">
<g filter="url(#filter0_d_214_94)">
<path d="M74.5 8H25.5C15.8365 8 8 15.8365 8 25.5V74.5C8 84.1635 15.8365 92 25.5 92H74.5C84.167 92 92 84.1635 92 74.5V25.5C92 15.8365 84.167 8 74.5 8ZM36 74.5H25.5V36H36V74.5ZM30.75 31.562C27.369 31.562 24.625 28.797 24.625 25.388C24.625 21.979 27.369 19.214 30.75 19.214C34.131 19.214 36.875 21.979 36.875 25.388C36.875 28.797 34.1345 31.562 30.75 31.562ZM78 74.5H67.5V54.886C67.5 43.098 53.5 43.9905 53.5 54.886V74.5H43V36H53.5V42.1775C58.386 33.1265 78 32.458 78 50.8435V74.5Z" fill="white"/>
</g>
<defs>
<filter id="filter0_d_214_94" x="0" y="0" width="100" height="100" filterUnits="userSpaceOnUse" color-interpolation-filters="sRGB">
<feFlood flood-opacity="0" result="BackgroundImageFix"/>
<feColorMatrix in="SourceAlpha" type="matrix" values="0 0 0 0 0 0 0 0 0 0 0 0 0 0 0 0 0 0 127 0" result="hardAlpha"/>
<feOffset/>
<feGaussianBlur stdDeviation="4"/>
<feComposite in2="hardAlpha" operator="out"/>
<feColorMatrix type="matrix" values="0 0 0 0 1 0 0 0 0 1 0 0 0 0 1 0 0 0 1 0"/>
<feBlend mode="normal" in2="BackgroundImageFix" result="effect1_dropShadow_214_94"/>
<feBlend mode="normal" in="SourceGraphic" in2="effect1_dropShadow_214_94" result="shape"/>
</filter>
</defs>
</svg>
