<svg width="145" height="79" viewBox="0 0 145 79" fill="none" xmlns="http://www.w3.org/2000/svg">
<rect y="56" width="145" height="23" fill="#68FDBE"/>
<rect y="67" width="145" height="12" fill="#35B680"/>
<path d="M52.3288 45H25.5448V38.568L43.2568 17.256H26.1688V10.968H52.0888V17.16L34.0888 38.664H52.3288V45ZM52.9839 38.568C52.9839 34.344 56.1039 31.992 60.0399 31.416L65.8479 30.552C67.1919 30.36 67.6239 29.688 67.6239 28.872C67.6239 27.192 66.3279 25.8 63.6399 25.8C60.8559 25.8 59.3199 27.576 59.1279 29.64L53.4639 28.44C53.8479 24.744 57.2559 20.664 63.5919 20.664C71.0799 20.664 73.8639 24.888 73.8639 29.64V41.256C73.8639 42.504 74.0079 44.184 74.1519 45H68.2959C68.1519 44.376 68.0559 43.08 68.0559 42.168C66.8559 44.04 64.5999 45.672 61.0959 45.672C56.0559 45.672 52.9839 42.264 52.9839 38.568ZM62.4399 40.92C65.1279 40.92 67.6239 39.624 67.6239 35.448V34.392L62.2959 35.208C60.6639 35.448 59.3679 36.36 59.3679 38.184C59.3679 39.576 60.3759 40.92 62.4399 40.92ZM83.3229 31.416V45H76.9389V21.384H83.1309V24.312C84.5709 21.864 87.4029 20.76 89.9469 20.76C95.8029 20.76 98.4909 24.936 98.4909 30.12V45H92.1069V31.224C92.1069 28.584 90.8109 26.52 87.7389 26.52C84.9549 26.52 83.3229 28.68 83.3229 31.416ZM99.5942 38.424L105.066 37.224C105.21 39.096 106.602 40.824 109.386 40.824C111.498 40.824 112.506 39.72 112.506 38.472C112.506 37.416 111.786 36.552 109.962 36.168L106.842 35.448C102.282 34.44 100.218 31.704 100.218 28.392C100.218 24.168 103.962 20.664 109.05 20.664C115.77 20.664 118.026 24.936 118.314 27.48L112.986 28.68C112.794 27.288 111.786 25.512 109.098 25.512C107.418 25.512 106.074 26.52 106.074 27.864C106.074 29.016 106.938 29.736 108.234 29.976L111.594 30.696C116.25 31.656 118.602 34.488 118.602 37.944C118.602 41.784 115.626 45.72 109.434 45.72C102.33 45.72 99.8822 41.112 99.5942 38.424Z" fill="black"/>
</svg>
