<svg width="228" height="78" viewBox="0 0 228 78" fill="none" xmlns="http://www.w3.org/2000/svg">
<path d="M0 65H228V78H0V65Z" fill="#C4FFE6"/>
<path d="M49.2083 52H16.9743V1.66101H26.7723V42.628H49.2083V52Z" fill="#00C797"/>
<path d="M49.3098 42.486C49.3098 36.238 53.9248 32.759 59.7468 31.907L68.3379 30.629C70.3259 30.345 70.9649 29.351 70.9649 28.144C70.9649 25.659 69.0479 23.6 65.0719 23.6C60.9539 23.6 58.6818 26.227 58.3979 29.28L50.0198 27.505C50.5878 22.038 55.6289 16.003 65.0009 16.003C76.0769 16.003 80.1948 22.251 80.1948 29.28V46.462C80.1948 48.308 80.4079 50.793 80.6208 52H71.9588C71.7458 51.077 71.6039 49.16 71.6039 47.811C69.8289 50.58 66.4919 52.994 61.3088 52.994C53.8538 52.994 49.3098 47.953 49.3098 42.486ZM63.2968 45.965C67.2728 45.965 70.9649 44.048 70.9649 37.871V36.309L63.0839 37.516C60.6699 37.871 58.7528 39.22 58.7528 41.918C58.7528 43.977 60.2438 45.965 63.2968 45.965Z" fill="#00C797"/>
<path d="M94.1863 31.907V52H84.7433V17.068H93.9023V21.399C96.0323 17.778 100.221 16.145 103.984 16.145C112.646 16.145 116.622 22.322 116.622 29.99V52H107.179V31.623C107.179 27.718 105.262 24.665 100.718 24.665C96.6003 24.665 94.1863 27.86 94.1863 31.907Z" fill="#00C797"/>
<path d="M154.535 0.596008V45.681C154.535 48.024 154.677 50.58 154.819 52H145.802C145.66 51.29 145.447 49.586 145.447 47.953C143.885 50.722 140.335 52.852 135.649 52.852C125.709 52.852 118.609 45.042 118.609 34.463C118.609 24.239 125.496 16.216 135.365 16.216C141.4 16.216 144.24 18.701 145.234 20.547V0.596008H154.535ZM128.123 34.463C128.123 40.711 131.815 44.403 136.785 44.403C141.613 44.403 145.376 40.711 145.376 34.392C145.376 28.144 141.613 24.665 136.785 24.665C131.957 24.665 128.123 28.215 128.123 34.463Z" fill="#00C797"/>
<path d="M166.696 30.558H182.316C182.174 27.079 179.902 23.671 174.506 23.671C169.607 23.671 166.909 27.363 166.696 30.558ZM183.239 39.646L191.12 41.989C189.345 48.024 183.807 53.065 175.216 53.065C165.631 53.065 157.182 46.178 157.182 34.392C157.182 23.245 165.418 16.003 174.364 16.003C185.156 16.003 191.617 22.89 191.617 34.108C191.617 35.457 191.475 36.877 191.475 37.019H166.483C166.696 41.634 170.601 44.971 175.287 44.971C179.689 44.971 182.103 42.77 183.239 39.646Z" fill="#00C797"/>
<path d="M215.383 16.926V26.44C214.318 26.227 213.395 26.156 212.543 26.156C207.715 26.156 203.526 28.499 203.526 36.025V52H194.083V17.068H203.242V22.251C205.372 17.636 210.2 16.784 213.182 16.784C213.963 16.784 214.673 16.855 215.383 16.926Z" fill="#00C797"/>
</svg>
