<svg width="145" height="55" viewBox="0 0 145 55" fill="none" xmlns="http://www.w3.org/2000/svg">
<path d="M42.1736 53H0.881583V43.084L28.1876 10.228H1.84358V0.533996H41.8036V10.08L14.0536 43.232H42.1736V53ZM43.1836 43.084C43.1836 36.572 47.9936 32.946 54.0616 32.058L63.0156 30.726C65.0876 30.43 65.7536 29.394 65.7536 28.136C65.7536 25.546 63.7556 23.4 59.6116 23.4C55.3196 23.4 52.9516 26.138 52.6556 29.32L43.9236 27.47C44.5156 21.772 49.7696 15.482 59.5376 15.482C71.0816 15.482 75.3736 21.994 75.3736 29.32V47.228C75.3736 49.152 75.5956 51.742 75.8176 53H66.7896C66.5676 52.038 66.4196 50.04 66.4196 48.634C64.5696 51.52 61.0916 54.036 55.6896 54.036C47.9196 54.036 43.1836 48.782 43.1836 43.084ZM57.7616 46.71C61.9056 46.71 65.7536 44.712 65.7536 38.274V36.646L57.5396 37.904C55.0236 38.274 53.0256 39.68 53.0256 42.492C53.0256 44.638 54.5796 46.71 57.7616 46.71ZM89.9562 32.058V53H80.1142V16.592H89.6602V21.106C91.8802 17.332 96.2462 15.63 100.168 15.63C109.196 15.63 113.34 22.068 113.34 30.06V53H103.498V31.762C103.498 27.692 101.5 24.51 96.7642 24.51C92.4722 24.51 89.9562 27.84 89.9562 32.058ZM115.041 42.862L123.477 41.012C123.699 43.898 125.845 46.562 130.137 46.562C133.393 46.562 134.947 44.86 134.947 42.936C134.947 41.308 133.837 39.976 131.025 39.384L126.215 38.274C119.185 36.72 116.003 32.502 116.003 27.396C116.003 20.884 121.775 15.482 129.619 15.482C139.979 15.482 143.457 22.068 143.901 25.99L135.687 27.84C135.391 25.694 133.837 22.956 129.693 22.956C127.103 22.956 125.031 24.51 125.031 26.582C125.031 28.358 126.363 29.468 128.361 29.838L133.541 30.948C140.719 32.428 144.345 36.794 144.345 42.122C144.345 48.042 139.757 54.11 130.211 54.11C119.259 54.11 115.485 47.006 115.041 42.862Z" fill="#00A37C"/>
</svg>
